<?xml version="1.0" standalone="no"?>
<!DOCTYPE svg PUBLIC "-//W3C//DTD SVG 20010904//EN"
 "http://www.w3.org/TR/2001/REC-SVG-20010904/DTD/svg10.dtd">
<svg version="1.0" xmlns="http://www.w3.org/2000/svg"
 width="256.000000pt" height="256.000000pt" viewBox="0 0 256.000000 256.000000"
 preserveAspectRatio="xMidYMid meet">
<metadata>
Created by potrace 1.11, written by Peter Selinger 2001-2013
</metadata>
<g transform="translate(0.000000,256.000000) scale(0.100000,-0.100000)"
fill="#000000" stroke="none">
<path d="M0 1280 l0 -1280 1280 0 1280 0 0 1280 0 1280 -1280 0 -1280 0 0
-1280z m380 975 l0 -145 -95 0 -95 0 0 145 0 145 95 0 95 0 0 -145z m400 0 l0
-145 -95 0 -95 0 0 145 0 145 95 0 95 0 0 -145z m400 0 l0 -145 -95 0 -95 0 0
145 0 145 95 0 95 0 0 -145z m400 0 l0 -145 -95 0 -95 0 0 145 0 145 95 0 95
0 0 -145z m400 0 l0 -145 -95 0 -95 0 0 145 0 145 95 0 95 0 0 -145z m400 0
l0 -145 -95 0 -95 0 0 145 0 145 95 0 95 0 0 -145z m-1260 -747 l0 -101 23 20
c34 31 62 43 102 43 94 0 165 -88 165 -205 0 -173 -153 -266 -267 -162 l-23
20 0 -26 c0 -23 -4 -27 -30 -27 l-30 0 0 270 0 270 30 0 30 0 0 -102z m730
-168 l0 -270 -30 0 -30 0 0 270 0 270 30 0 30 0 0 -270z m-280 175 l0 -55 65
0 c63 0 65 -1 65 -25 0 -24 -2 -25 -65 -25 l-65 0 0 -129 c0 -152 4 -161 81
-161 46 0 49 -1 49 -26 0 -26 0 -26 -70 -22 -109 6 -114 14 -118 193 l-3 145
-25 0 c-19 0 -24 5 -24 25 0 20 5 25 25 25 24 0 25 3 25 55 0 54 0 55 30 55
30 0 30 -1 30 -55z m-1117 -56 c32 -8 37 -14 37 -38 l0 -29 -37 14 c-79 28
-158 13 -169 -32 -9 -37 18 -59 96 -79 77 -19 107 -37 120 -71 27 -69 -9 -135
-83 -155 -41 -11 -144 -7 -180 6 -11 5 -17 18 -17 40 l0 33 50 -19 c99 -38
179 -16 180 48 0 29 -30 47 -110 67 -104 26 -145 89 -106 164 28 55 125 77
219 51z m1805 -18 c42 -29 62 -70 69 -137 l6 -54 -148 0 -147 0 6 -32 c9 -47
33 -78 74 -95 44 -18 124 -13 171 11 l31 17 0 -31 c0 -37 -25 -49 -121 -57
-136 -12 -226 67 -228 198 -2 130 80 214 200 207 37 -3 66 -11 87 -27z m-1586
-132 l3 -151 28 -24 c33 -28 75 -31 118 -8 47 24 59 66 59 209 l0 125 30 0 30
0 0 -195 0 -195 -30 0 c-26 0 -30 4 -30 27 l0 26 -22 -21 c-73 -67 -191 -52
-228 30 -16 36 -20 66 -20 186 l0 142 29 0 30 0 3 -151z m-292 -1014 l0 -145
-95 0 -95 0 0 145 0 145 95 0 95 0 0 -145z m400 0 l0 -145 -95 0 -95 0 0 145
0 145 95 0 95 0 0 -145z m400 0 l0 -145 -95 0 -95 0 0 145 0 145 95 0 95 0 0
-145z m400 0 l0 -145 -95 0 -95 0 0 145 0 145 95 0 95 0 0 -145z m400 0 l0
-145 -95 0 -95 0 0 145 0 145 95 0 95 0 0 -145z m400 0 l0 -145 -95 0 -95 0 0
145 0 145 95 0 95 0 0 -145z"/>
<path d="M1179 1405 c-78 -42 -76 -240 2 -280 84 -44 159 23 159 140 0 118
-78 185 -161 140z"/>
<path d="M2111 1407 c-27 -14 -56 -51 -66 -84 -6 -23 -6 -23 111 -23 l117 0
-7 33 c-13 68 -92 107 -155 74z"/>
</g>
</svg>
